<svg width="1600" height="900" viewBox="0 0 1600 900" fill="none" xmlns="http://www.w3.org/2000/svg">
  <rect width="1600" height="900" fill="#0B0B0B"/>
  <g opacity="0.15">
    <circle cx="240" cy="180" r="140" fill="#E11D2E"/>
    <circle cx="1360" cy="140" r="160" fill="#E11D2E"/>
    <circle cx="1320" cy="760" r="200" fill="#E11D2E"/>
  </g>
  <g opacity="0.12" stroke="#FFFFFF">
    <path d="M120 620H1480" stroke-width="2"/>
    <path d="M160 580H1440" stroke-width="2"/>
    <path d="M200 540H1400" stroke-width="2"/>
  </g>
  <g transform="translate(260 230)">
    <rect x="0" y="0" width="1080" height="520" rx="28" fill="#121212" stroke="#2A2A2A" stroke-width="2"/>
    <rect x="28" y="32" width="1024" height="420" rx="20" fill="#0F0F0F" stroke="#1F1F1F" stroke-width="2"/>
    <rect x="70" y="74" width="520" height="140" rx="16" fill="#141414" stroke="#2B2B2B" stroke-width="2"/>
    <rect x="620" y="74" width="360" height="240" rx="16" fill="#141414" stroke="#2B2B2B" stroke-width="2"/>
    <rect x="70" y="238" width="520" height="174" rx="16" fill="#141414" stroke="#2B2B2B" stroke-width="2"/>
    <rect x="650" y="112" width="120" height="12" rx="6" fill="#E11D2E"/>
    <rect x="650" y="140" width="200" height="10" rx="5" fill="#3A3A3A"/>
    <rect x="650" y="164" width="160" height="10" rx="5" fill="#3A3A3A"/>
    <rect x="100" y="108" width="200" height="10" rx="5" fill="#3A3A3A"/>
    <rect x="100" y="132" width="280" height="10" rx="5" fill="#3A3A3A"/>
    <rect x="100" y="156" width="240" height="10" rx="5" fill="#3A3A3A"/>
    <rect x="100" y="270" width="360" height="12" rx="6" fill="#E11D2E"/>
    <rect x="100" y="300" width="320" height="10" rx="5" fill="#3A3A3A"/>
    <rect x="100" y="324" width="300" height="10" rx="5" fill="#3A3A3A"/>
    <rect x="100" y="348" width="260" height="10" rx="5" fill="#3A3A3A"/>
    <rect x="320" y="478" width="440" height="12" rx="6" fill="#1E1E1E"/>
    <rect x="420" y="498" width="240" height="8" rx="4" fill="#2D2D2D"/>
  </g>
  <g transform="translate(460 770)">
    <rect x="0" y="0" width="680" height="40" rx="20" fill="#101010" stroke="#2A2A2A" stroke-width="2"/>
  </g>
  <g opacity="0.3" fill="#FFFFFF">
    <rect x="120" y="120" width="10" height="10" rx="2"/>
    <rect x="1480" y="200" width="10" height="10" rx="2"/>
    <rect x="1400" y="720" width="10" height="10" rx="2"/>
  </g>
</svg>
