<svg width="1600" height="900" viewBox="0 0 1600 900" fill="none" xmlns="http://www.w3.org/2000/svg">
  <rect width="1600" height="900" fill="#0B0B0B"/>
  <g opacity="0.2">
    <circle cx="260" cy="160" r="140" fill="#E11D2E"/>
    <circle cx="1380" cy="140" r="160" fill="#E11D2E"/>
    <circle cx="1320" cy="760" r="210" fill="#E11D2E"/>
  </g>
  <g opacity="0.12" stroke="#FFFFFF">
    <path d="M120 640H1480" stroke-width="2"/>
    <path d="M160 600H1440" stroke-width="2"/>
    <path d="M200 560H1400" stroke-width="2"/>
  </g>
  <g transform="translate(200 200)">
    <rect x="0" y="0" width="1200" height="580" rx="30" fill="#121212" stroke="#2A2A2A" stroke-width="2"/>
    <rect x="36" y="40" width="1128" height="470" rx="24" fill="#0F0F0F" stroke="#1F1F1F" stroke-width="2"/>
    <rect x="76" y="86" width="560" height="170" rx="16" fill="#141414" stroke="#2B2B2B" stroke-width="2"/>
    <rect x="660" y="86" width="440" height="210" rx="16" fill="#141414" stroke="#2B2B2B" stroke-width="2"/>
    <rect x="76" y="272" width="560" height="200" rx="16" fill="#141414" stroke="#2B2B2B" stroke-width="2"/>
    <rect x="690" y="130" width="160" height="12" rx="6" fill="#E11D2E"/>
    <rect x="690" y="156" width="220" height="10" rx="5" fill="#3A3A3A"/>
    <rect x="690" y="180" width="180" height="10" rx="5" fill="#3A3A3A"/>
    <rect x="104" y="124" width="240" height="10" rx="5" fill="#3A3A3A"/>
    <rect x="104" y="148" width="300" height="10" rx="5" fill="#3A3A3A"/>
    <rect x="104" y="172" width="260" height="10" rx="5" fill="#3A3A3A"/>
    <rect x="104" y="308" width="360" height="12" rx="6" fill="#E11D2E"/>
    <rect x="104" y="338" width="320" height="10" rx="5" fill="#3A3A3A"/>
    <rect x="104" y="362" width="300" height="10" rx="5" fill="#3A3A3A"/>
    <rect x="104" y="386" width="260" height="10" rx="5" fill="#3A3A3A"/>
    <rect x="360" y="528" width="520" height="12" rx="6" fill="#1E1E1E"/>
    <rect x="500" y="548" width="240" height="8" rx="4" fill="#2D2D2D"/>
  </g>
  <g transform="translate(420 785)">
    <rect x="0" y="0" width="760" height="44" rx="22" fill="#101010" stroke="#2A2A2A" stroke-width="2"/>
  </g>
  <g opacity="0.35" fill="#FFFFFF">
    <rect x="120" y="120" width="10" height="10" rx="2"/>
    <rect x="1480" y="220" width="10" height="10" rx="2"/>
    <rect x="1400" y="730" width="10" height="10" rx="2"/>
  </g>
</svg>
