<svg id="Layer_1" data-name="Layer 1" xmlns="http://www.w3.org/2000/svg" viewBox="0 0 589.47 426.33"><defs><style>.cls-1{fill:red;}</style></defs><title>1kmg.svg logo</title><path class="cls-1" d="M349.17,445.91c-11.28-10.53-22.72-20.86-33.77-31.57q-70-67.88-140-135.88c-1.52-1.47-4.82-3.4-5.9-2.8-7.5,4.13-15.32,8.16-21.56,13.73-2.7,2.41-2.57,8.4-2.59,12.77-.16,37.53.16,75.07-.32,112.6-.06,4.78-2.89,10.35-6.21,14.13-9,10.29-19,19.84-28.69,29.6-2.57,2.59-5.48,4.87-8.88,7.87,0-44.29,0-87.13,0-130,0-59.88.11-119.76,0-179.64,0-5.9,1.88-10.13,6.47-14.12,11.9-10.34,23.35-21.14,36.75-33.38V252.06c4.73-2.78,7.67-4.31,10.39-6.13,62.22-41.84,124.86-83.13,186.48-125.76,45-31.11,95-40.44,148.87-36.18,48.65,3.85,90.37,22.75,125.8,54.63-.4.77-.52,1.46-.93,1.72-13.65,8.44-13.63,8.41-26.28-.65-55.3-39.63-116.11-47.12-180.18-25.08C390,121,373.48,133.85,357,145c-47.65,32.26-94.83,65.17-142.15,97.88-4.79,3.31-9.3,7-14.92,11.24,13.08,11.21,25.06,21.93,37.53,32.1,35.77,29.17,71.77,58.08,107.57,87.22,2.05,1.67,4.39,4.43,4.44,6.72.54,21.47.62,43,.77,64.44C350.21,445.05,349.55,445.46,349.17,445.91Z" transform="translate(-101.26 -83.01)"/><path class="cls-1" d="M377.13,204.28l90.54,96.55c11.64-14.68,23.25-29.09,34.6-43.68s22.58-29.62,34-44.36c20.46-26.49,46.9-46.44,76.09-63.33q33.82-19.57,67.73-39a53.08,53.08,0,0,1,6.11-2.58l2.52,2.75c-4.36,3.32-8.91,6.43-13,10-27.39,23.54-54.32,47.6-82.16,70.65-18.83,15.58-26.14,33.77-25.35,57.91,1.79,54.39.74,108.87,1.15,163.31.05,6.82-1.57,10.17-9.37,9.54a97.75,97.75,0,0,0-18,.12c-8.26.86-10-2.62-10-9.85,0-46.13-.42-92.26-.7-138.39,0-2.8,0-5.6,0-8.4l-2.43-1.18L467.54,340l-59.73-69.53-2.27.48c0,5,0,10,0,15-.09,32.67-.36,65.33-.13,98,.05,7.07-1.36,10.13-9.75,10-22.4-.26-22.38.14-22.3-21.4q.29-77.37.53-154.73c0-4.18,0-8.36,0-12.54Z" transform="translate(-101.26 -83.01)"/><path class="cls-1" d="M587.72,350.39c0-7.81.12-14,0-20.24-.12-4.73,2-6.67,7-6.65,9.88.05,19.8.28,29.62-.47,16.19-1.23,27.71-9.6,32.93-24.13,5.55-15.46,1.19-29.45-10.8-41-7.62-7.34-17.49-9.72-27.93-9.95-7.78-.17-15.58.12-23.36.42-4.62.18-6.53-1.64-6.38-6.05.2-5.68,0-11.38,0-16.89,47.74-9.78,88.61,3.18,99.93,47.14,9.48,36.81-15.29,70.38-54.72,75.32C619.28,349.71,604.28,349.55,587.72,350.39Z" transform="translate(-101.26 -83.01)"/><path class="cls-1" d="M675.19,372.26C644.06,477.47,520.94,528.07,433.43,503c7.58-15.8,9.14-16.26,26-15.06,74.69,5.31,132.61-23.14,175.45-81,6.37-8.6,12.35-17.82,16.36-27.57,3.45-8.41,8.28-10.14,16.35-8.27C669.86,371.7,672.22,371.85,675.19,372.26Z" transform="translate(-101.26 -83.01)"/></svg>